<svg width="33" height="40" viewBox="0 0 33 40" fill="none" xmlns="http://www.w3.org/2000/svg">
<path fill-rule="evenodd" clip-rule="evenodd" d="M10.0311 8.16696C10.0512 8.16897 10.0712 8.17093 10.0913 8.1624C10.0982 8.15467 10.1054 8.1473 10.1124 8.14004C10.1466 8.10483 10.1782 8.07226 10.1616 8.01482C10.3122 7.84061 10.4227 7.5489 10.3323 7.29587C10.2771 7.17739 10.1666 7.18694 10.0562 7.19698C9.98087 7.20401 9.90053 7.21052 9.84531 7.17036L9.84031 7.09554L7.84215 6.29829C7.76745 5.94555 7.61386 5.63468 7.46076 5.32482C7.42864 5.25981 7.39654 5.19485 7.3652 5.12955C7.33852 4.70934 7.14886 4.35608 6.9611 4.00636C6.76033 3.63238 6.56173 3.26247 6.56692 2.81909C6.67737 2.65592 6.8079 2.677 6.93341 2.69808L6.93683 2.69861C7.011 2.70999 7.08511 2.72136 7.15433 2.6996C7.24972 2.62279 7.30493 2.56604 7.25974 2.41995C7.27489 2.40916 7.28575 2.39009 7.29717 2.37004C7.31605 2.33691 7.33647 2.30109 7.38025 2.29546C7.38272 2.26296 7.3837 2.22986 7.38468 2.19697C7.3897 2.02868 7.39454 1.86611 7.59613 1.81949C7.57237 1.76897 7.54361 1.72064 7.51459 1.67186C7.45162 1.56603 7.38739 1.45809 7.3702 1.32097C7.46396 1.13753 7.4196 0.920055 7.37638 0.708127C7.35016 0.579586 7.32436 0.453087 7.33005 0.337464C7.23897 0.30331 7.14514 0.258004 7.04925 0.211704C6.82799 0.104871 6.59577 -0.00725617 6.3611 9.91851e-05C6.21551 0.00461764 6.0699 0.0558112 5.92431 0.184838C5.65822 0.48155 5.49252 0.802853 5.50256 1.11613C5.50256 1.50603 5.54122 1.65547 5.58356 1.81918C5.60773 1.91264 5.63311 2.01076 5.65318 2.16093C5.62366 2.18881 5.60379 2.23179 5.58428 2.27397C5.54407 2.36093 5.50543 2.44449 5.3871 2.38533C5.16118 2.67602 4.8951 3.00487 4.64408 3.30761C4.49508 3.44412 4.33415 3.57907 4.17048 3.71632L4.17048 3.71632C3.48488 4.29124 2.7513 4.90639 2.64592 5.84546C2.71621 6.72405 2.73625 7.57651 2.70613 8.46765C2.73429 8.47141 2.76685 8.46859 2.79968 8.46574L2.80654 8.46515C2.86679 8.45963 2.92704 8.45413 2.96721 8.48927C2.96325 8.496 2.96007 8.50211 2.95705 8.5079C2.95242 8.51679 2.94818 8.52493 2.9421 8.53345H2.9371C2.9371 8.58265 2.93707 8.62633 2.93205 8.67553L2.99736 8.67352C3.0709 8.82796 3.06635 9.02047 3.06183 9.21193C3.05833 9.3603 3.05484 9.50804 3.08772 9.63693C3.11487 9.67259 3.12832 9.72294 3.14171 9.77308C3.16545 9.86199 3.18902 9.95024 3.28854 9.95473C3.28352 9.91658 3.2785 9.87089 3.31364 9.84177L3.44415 10.0893C3.50301 10.1191 3.52368 10.0753 3.54401 10.0323C3.55316 10.0129 3.56225 9.99367 3.57472 9.98135C3.61356 10.0011 3.61065 10.0453 3.60771 10.0898C3.6061 10.1143 3.60447 10.1389 3.60982 10.1596L3.6134 10.1643C3.64277 10.2031 3.67786 10.2496 3.74539 10.2288L3.78054 9.47376C3.84408 9.62944 3.86047 9.81244 3.87682 9.99499C3.88372 10.0721 3.89062 10.149 3.90105 10.2238L3.97131 10.2218C4.05043 10.1486 4.04234 10.0394 4.03425 9.93036C4.03054 9.88025 4.02682 9.83014 4.03156 9.78352C4.01839 9.65399 4.01418 9.52978 4.0101 9.40936C4.00017 9.11673 3.99101 8.84642 3.85585 8.5761C3.91609 8.5264 3.93619 8.46968 3.92615 8.38533C3.94615 8.38066 3.95828 8.36469 3.96994 8.34933C3.98463 8.32999 3.99858 8.31163 4.02656 8.31806C4.11621 7.75186 4.1162 7.12751 4.11619 6.53229V6.53228V6.53227V6.53226V6.53225V6.53225V6.53224V6.53223V6.53222V6.53221V6.5322V6.53219V6.53219V6.53218C4.11619 6.29407 4.11618 6.06063 4.12192 5.83742L4.39305 5.61552C4.63906 6.73911 4.44324 7.90688 4.24744 9.02545C4.31772 9.22577 4.383 9.47229 4.30769 9.70876L4.29764 10.138L4.3328 10.137L4.3378 9.94321C4.34173 10.0534 4.33505 10.1705 4.32839 10.2872C4.30957 10.6173 4.29096 10.9436 4.51351 11.0964L4.51351 11.0966C4.50849 12.1885 4.5035 13.2739 4.3529 14.2925C4.20956 14.6383 4.04952 14.9846 3.88841 15.3331C3.31812 16.5669 2.73437 17.8298 2.83048 19.2088H0.0552979V32.6286H7.55596V19.2088H3.61007L3.68513 19.0404C3.75036 19.0501 3.81642 19.0606 3.88306 19.0712C4.51387 19.1711 5.19624 19.2793 5.71844 18.8511C5.6724 18.6206 5.45188 18.5959 5.22777 18.5709C5.08527 18.5549 4.94132 18.5388 4.83985 18.4695C4.82038 18.4588 4.80024 18.4481 4.77978 18.4373L4.77949 18.4371L4.77933 18.437L4.77929 18.437C4.66271 18.3751 4.53583 18.3077 4.46331 18.2019L4.3378 18.1899C4.488 17.5211 4.79425 16.9185 5.09803 16.3208C5.1598 16.1992 5.22146 16.0779 5.28169 15.9563C6.11725 14.8988 6.23065 13.5414 6.34399 12.1847C6.3689 11.8866 6.3938 11.5885 6.42636 11.2937C6.4615 11.2249 6.52674 11.2094 6.59703 11.2154C6.64221 11.2089 6.7025 11.2084 6.76274 11.2078C6.9736 11.2058 7.21458 11.2029 7.15433 10.983C7.6801 11.0205 8.15569 11.1815 8.6332 11.3431C9.04939 11.4839 9.46703 11.6253 9.92061 11.6858C9.91185 11.7454 9.88607 11.7986 9.86011 11.8521C9.84147 11.8905 9.82274 11.9291 9.81015 11.9705C9.79541 12.2216 9.78551 12.4646 9.77568 12.706L9.77505 12.7216V12.9108C9.7399 14.1679 9.74492 14.8924 9.99092 16.0974L10.6787 16.0757L10.749 15.899C10.8813 15.8894 11.0182 15.8849 11.1574 15.8803H11.1575C11.7048 15.8624 12.288 15.8432 12.7723 15.5034C12.7024 15.2841 12.4836 15.2824 12.2571 15.2807C12.1094 15.2796 11.9584 15.2784 11.8435 15.2168C11.8196 15.2049 11.7943 15.1931 11.7682 15.1809L11.7682 15.1809L11.7682 15.1809C11.6191 15.1112 11.4464 15.0305 11.3866 14.8698C11.3264 13.5821 11.4117 12.2421 11.6426 10.9809C10.9249 10.0216 9.9918 9.61928 9.06029 9.21762C8.72773 9.07421 8.39536 8.9309 8.07308 8.76236C8.09312 8.70384 8.09796 8.67468 8.10165 8.65244C8.10721 8.61896 8.11017 8.60114 8.15843 8.52242C8.01142 8.52219 7.89089 8.46887 7.77758 8.41875C7.63937 8.35761 7.51188 8.30121 7.36015 8.3517C7.29991 8.0339 7.26476 7.64832 7.33505 7.31445C7.36639 7.3397 7.39954 7.35993 7.43219 7.37987C7.49371 7.41742 7.55349 7.45391 7.59613 7.52081C7.85658 7.61562 8.12914 7.68205 8.40268 7.74873C8.78823 7.8427 9.17573 7.93716 9.53402 8.11219L9.765 7.95658L10.0311 8.16696ZM5.90419 29.5887C5.77366 29.8493 5.52768 30.0677 5.15617 30.2439C4.78967 30.4201 4.35788 30.508 3.87089 30.508C3.33369 30.508 2.87685 30.4066 2.4953 30.2033C2.11876 29.9999 1.86769 29.7414 1.75222 29.4266C1.63173 29.1123 1.5765 28.666 1.5765 28.0881V27.583H3.43914V28.5214C3.43914 28.8106 3.46424 28.9963 3.51445 29.0792C3.56967 29.1615 3.66002 29.2027 3.79558 29.2027C3.92611 29.2027 4.02654 29.1505 4.09181 29.0455C4.15707 28.9406 4.19222 28.7854 4.19222 28.5786C4.19222 28.1247 4.12694 27.8276 4.00645 27.688C3.87592 27.5484 3.56463 27.315 3.0676 26.9876C2.56555 26.6573 2.23923 26.4178 2.07355 26.2682C1.9129 26.1191 1.77734 25.9127 1.67191 25.6491C1.56648 25.3856 1.51125 25.0487 1.51125 24.639C1.51125 24.0486 1.58655 23.6164 1.73717 23.3432C1.88778 23.0701 2.13382 22.8567 2.47019 22.7026C2.80657 22.5485 3.21322 22.4717 3.69017 22.4717C4.2123 22.4717 4.65411 22.556 5.0206 22.7242C5.3871 22.8924 5.6331 23.1043 5.74858 23.3598C5.86907 23.6159 5.9293 24.0501 5.9293 24.6631V24.9678H4.06671V24.396C4.06671 24.1294 4.04158 23.9597 3.9964 23.8864C3.94619 23.8131 3.86588 23.777 3.75542 23.777C3.63493 23.777 3.54454 23.8262 3.4843 23.9246C3.41903 24.0235 3.38894 24.1726 3.38894 24.3729C3.38894 24.63 3.42406 24.8238 3.49435 24.9543C3.55961 25.0849 3.75038 25.242 4.06166 25.4257C4.95531 25.9559 5.51763 26.3907 5.74858 26.7306C5.97952 27.0705 6.09496 27.6182 6.09496 28.3738C6.09496 28.9235 6.02971 29.3287 5.90419 29.5887ZM13.3093 24.0787H14.5493V22.4717H9.98567V24.0787H11.2207V30.5025H13.3093V24.0787ZM16.0153 32.6286H8.51467V16.177H16.0153V32.6286ZM22.5974 30.5066H19.1483V22.4698H22.4569V24.0788H21.0612V25.6031H22.3665V27.1318H21.0612V28.899H22.5974V30.5066ZM16.9795 32.6282H24.4801V13.0483H16.9795V32.6282ZM29.0287 25.8888V23.843C29.2998 23.843 29.4805 23.8847 29.5659 23.967C29.6512 24.0498 29.6914 24.2285 29.6914 24.5037V25.1639C29.6914 25.4616 29.6563 25.6579 29.581 25.7523C29.5057 25.8467 29.3751 25.8939 29.1844 25.8939C29.1392 25.8939 29.089 25.8923 29.0287 25.8888ZM31.4438 25.4173C31.4438 25.9304 31.3886 26.3039 31.2831 26.5389C31.1777 26.7748 30.9819 26.9551 30.7008 27.0806C30.4146 27.2061 30.0481 27.2689 29.5912 27.2689H29.0289V30.5066H27.1161V22.4677H29.044C29.6113 22.4677 30.0481 22.5119 30.3543 22.6013C30.6606 22.6907 30.8915 22.8202 31.0472 22.9889C31.2028 23.1581 31.3032 23.3624 31.3584 23.6019C31.4137 23.8419 31.4438 24.2134 31.4438 24.7164V25.4173ZM25.4393 32.6282H32.9399V10.0164H25.4393V32.6282ZM0.0552979 39.8825H1.5213V34.2847H0.0552979V39.8825ZM5.06572 34.2843V35.4043H4.19218V39.8822H2.72618V35.4043H1.85764V34.2843H5.06572ZM8.18898 35.5328C8.26429 36.4656 8.3396 37.2498 8.4149 37.8839H7.90785C7.94802 37.3878 8.04339 36.6047 8.18898 35.5328ZM10.0315 39.8825L9.19308 34.2847H7.07442L6.32639 39.8825H7.83755L7.92791 38.8764H8.45506L8.53037 39.8825H10.0315ZM13.7065 36.7222H12.2355V35.7493C12.2355 35.4661 12.2205 35.2899 12.1903 35.2196C12.1602 35.1493 12.0899 35.1141 11.9845 35.1141C11.864 35.1141 11.7837 35.1569 11.7535 35.2422C11.7184 35.3276 11.7033 35.5118 11.7033 35.7954V38.3956C11.7033 38.6677 11.7184 38.8454 11.7535 38.9283C11.7837 39.0111 11.859 39.0527 11.9745 39.0527C12.0799 39.0527 12.1552 39.0111 12.1853 38.9277C12.2205 38.8449 12.2355 38.6496 12.2355 38.3424V37.6385H13.7065V37.8564C13.7065 38.4362 13.6613 38.8474 13.581 39.0894C13.4957 39.3319 13.3149 39.5442 13.0338 39.7265C12.7526 39.9087 12.4012 40.0001 11.9895 40.0001C11.5577 40.0001 11.2063 39.9228 10.9251 39.7687C10.649 39.614 10.4633 39.4002 10.3729 39.1271C10.2825 38.854 10.2373 38.4433 10.2373 37.894V36.2589C10.2373 35.8557 10.2524 35.553 10.2775 35.3511C10.3077 35.1493 10.388 34.955 10.5286 34.7682C10.6641 34.582 10.8599 34.4349 11.1009 34.3274C11.3469 34.2205 11.628 34.1668 11.9494 34.1668C12.3811 34.1668 12.7376 34.2496 13.0187 34.4153C13.2999 34.5815 13.4806 34.7878 13.571 35.0354C13.6613 35.2829 13.7065 35.6679 13.7065 36.1906V36.7222ZM15.7643 35.5328C15.8397 36.4656 15.9149 37.2498 15.9852 37.8839H15.4832C15.5183 37.3878 15.6137 36.6047 15.7643 35.5328ZM17.6018 39.8825L16.7634 34.2847H14.6448L13.8967 39.8825H15.4129L15.5033 38.8764H16.0254L16.1057 39.8825H17.6018ZM19.3193 35.2422V38.9247C19.5302 38.9247 19.6607 38.8826 19.7109 38.7982C19.7561 38.7144 19.7812 38.4854 19.7812 38.1119V35.937C19.7812 35.6835 19.7762 35.5213 19.7561 35.4495C19.7411 35.3783 19.7059 35.326 19.6457 35.2919C19.5905 35.2587 19.48 35.2422 19.3193 35.2422ZM17.8533 34.2843H18.9529C19.6607 34.2843 20.1377 34.3164 20.3887 34.3812C20.6347 34.4454 20.8255 34.5519 20.956 34.699C21.0865 34.8466 21.1669 35.0108 21.202 35.192C21.2322 35.3732 21.2472 35.7282 21.2472 36.2589V38.2194C21.2472 38.7219 21.2271 39.0578 21.1769 39.2275C21.1317 39.3967 21.0464 39.5292 20.9309 39.6251C20.8104 39.7205 20.6648 39.7873 20.4891 39.8254C20.3134 39.8636 20.0523 39.8822 19.7009 39.8822H17.8533V34.2843ZM24.2394 34.2843H21.7944V39.8822H24.3398V38.7621H23.2604V37.531H24.1791V36.4662H23.2604V35.4043H24.2394V34.2843ZM29.2846 34.2843V39.8822H28.0044L27.9994 36.1027L27.4923 39.8822H26.5836L26.0464 36.1895L26.0414 39.8822H24.7612V34.2843H26.6589C26.7141 34.6207 26.7744 35.0177 26.8346 35.4741L27.0404 36.8979L27.3768 34.2843H29.2846ZM31.9306 37.8559L33 34.2843H31.6545C31.4587 35.1579 31.3231 35.8928 31.2428 36.4903C31.2177 36.1122 31.0972 35.3772 30.8864 34.2843H29.5408L30.57 37.8559V39.8822H31.9306V37.8559Z" fill="#3963FF" fill-opacity="0.9"/>
</svg>
